<svg width="8" height="12" viewBox="0 0 8 12" fill="none" xmlns="http://www.w3.org/2000/svg">
<path d="M7.4582 4.62078C7.4363 4.58213 7.40453 4.54998 7.36615 4.52761C7.32776 4.50524 7.28413 4.49345 7.2397 4.49345H3.94963L4.50121 0.278955C4.50713 0.222551 4.4939 0.165796 4.46364 0.117828C4.43338 0.0698602 4.38786 0.0334712 4.33441 0.0145198C4.28095 -0.00443159 4.22268 -0.00484259 4.16896 0.013353C4.11524 0.0315486 4.06921 0.0672919 4.03828 0.114828L0.0372024 7.12457C0.0138052 7.16262 0.0009818 7.20623 5.41668e-05 7.25089C-0.000873466 7.29555 0.0101282 7.33965 0.0319251 7.37865C0.053722 7.41764 0.0855251 7.45012 0.124055 7.47272C0.162585 7.49533 0.206448 7.50725 0.25112 7.50726H3.49203L3.0549 11.7281C3.05061 11.7843 3.06523 11.8403 3.09645 11.8873C3.12768 11.9342 3.1737 11.9694 3.2272 11.9871C3.2807 12.0049 3.33861 12.0043 3.3917 11.9853C3.4448 11.9664 3.49004 11.9302 3.52022 11.8826L7.45519 4.87363C7.478 4.83552 7.4903 4.79203 7.49083 4.74761C7.49136 4.70319 7.4801 4.65943 7.4582 4.62078Z" fill="#D9E0E5"/>
</svg>
