<svg width="16" height="16" viewBox="0 0 16 16" fill="none" xmlns="http://www.w3.org/2000/svg">
<g clip-path="url(#clip0_0_151)">
<path d="M2.91065 0.0491333C1.33653 0.0491333 0.0491943 1.33215 0.0491943 2.90412V13.1898C0.0491943 14.7618 1.33653 16.0491 2.91065 16.0491H13.1942C14.7662 16.0491 16.0492 14.7618 16.0492 13.1877V2.90412C16.0492 1.33215 14.7662 0.0491333 13.1942 0.0491333H2.91065ZM2.91065 1.19199H13.1942C14.1538 1.19199 14.9063 1.94671 14.9063 2.90412V13.1898C14.9063 14.1472 14.1516 14.9063 13.1942 14.9063H2.90849C2.68242 14.908 2.45827 14.8647 2.2491 14.7789C2.03993 14.6931 1.84993 14.5666 1.69017 14.4066C1.53041 14.2467 1.40409 14.0565 1.31857 13.8472C1.23305 13.638 1.19004 13.4137 1.19205 13.1877V2.90412C1.19205 1.94455 1.95108 1.19199 2.91065 1.19199ZM9.77642 2.89549C9.62486 2.89435 9.47907 2.95346 9.37109 3.05981C9.26312 3.16617 9.20182 3.31106 9.20068 3.46261C9.19953 3.61416 9.25864 3.75996 9.365 3.86793C9.47135 3.97591 9.61624 4.03721 9.76779 4.03835L11.1867 4.08795L8.78882 6.52892C8.73306 6.58173 8.68851 6.64523 8.65784 6.71564C8.62718 6.78605 8.61102 6.86192 8.61033 6.93872C8.60965 7.01551 8.62445 7.09166 8.65385 7.1626C8.68326 7.23355 8.72666 7.29784 8.78147 7.35164C8.83628 7.40543 8.90137 7.44763 8.97286 7.4757C9.04434 7.50377 9.12075 7.51715 9.19752 7.51503C9.27429 7.51291 9.34984 7.49533 9.41967 7.46336C9.48949 7.43138 9.55215 7.38566 9.60391 7.32892L11.9845 4.90735L12.0319 6.30466C12.0374 6.45621 12.1028 6.5994 12.2138 6.70272C12.3248 6.80604 12.4723 6.86104 12.6239 6.8556C12.7754 6.85017 12.9186 6.78475 13.0219 6.67375C13.1252 6.56274 13.1802 6.41524 13.1748 6.26369L13.0821 3.54239C13.0821 3.16935 12.9009 2.99037 12.5301 2.99037C11.6136 2.95803 10.6907 2.92353 9.77642 2.89549ZM6.50526 8.81463L4.11604 11.2017L4.0686 9.79145C4.06317 9.6399 3.99775 9.49671 3.88675 9.39339C3.77574 9.29007 3.62824 9.23507 3.47669 9.24051C3.32513 9.24594 3.18195 9.31135 3.07863 9.42236C2.9753 9.53337 2.92031 9.68087 2.92574 9.83242L3.01847 12.5537C3.01847 12.903 3.25566 13.1057 3.57049 13.1057L6.29394 13.1985C6.44549 13.2036 6.59288 13.1483 6.70368 13.0448C6.81449 12.9413 6.87963 12.798 6.88477 12.6464C6.88992 12.4949 6.83465 12.3475 6.73113 12.2367C6.6276 12.1259 6.4843 12.0607 6.33275 12.0556L4.92467 12.0082L7.31388 9.61894C7.36814 9.56628 7.41127 9.50327 7.44072 9.43363C7.47017 9.364 7.48535 9.28916 7.48535 9.21355C7.48535 9.13795 7.47017 9.06311 7.44072 8.99347C7.41127 8.92384 7.36814 8.86082 7.31388 8.80816C7.26143 8.75371 7.19847 8.71046 7.12882 8.68106C7.05916 8.65166 6.98426 8.6367 6.90865 8.63711C6.83304 8.63751 6.7583 8.65326 6.68896 8.68341C6.61962 8.71355 6.55713 8.75962 6.50526 8.81463Z" fill="#97A2B4"/>
</g>
<defs>
<clipPath id="clip0_0_151">
<rect width="16" height="16" fill="white"/>
</clipPath>
</defs>
</svg>
